<svg width="22" height="22" viewBox="0 0 22 22" fill="none" xmlns="http://www.w3.org/2000/svg">
<path d="M20 4.30396C20 7.80165 17.1646 10.6378 13.667 10.6379H11.2002V13.0002C11.2002 14.039 11.1887 16.3202 9.54297 19.5374H16.4668L16.6074 19.552C16.9265 19.6172 17.167 19.8992 17.167 20.2375C17.167 20.5759 16.9265 20.8579 16.6074 20.9231L16.4668 20.9377H3.5C3.1134 20.9377 2.7998 20.6241 2.7998 20.2375C2.7998 19.8509 3.1134 19.5374 3.5 19.5374H7.95508C9.70653 16.4232 9.79457 14.2268 9.79883 13.1711H7.33301C3.83535 13.171 1 10.3349 1 6.83716V4.30396H4.7998C6.93409 4.30396 8.82036 5.36104 9.96777 6.97876C10.4989 4.01796 13.0866 1.77075 16.2002 1.77075H20V4.30396Z" fill="#89AF4E"/>
</svg>
