<svg width="22" height="22" viewBox="0 0 22 22" fill="none" xmlns="http://www.w3.org/2000/svg">
<path d="M9.16668 18.3334C5.70971 18.3334 3.98123 18.3334 2.90729 17.2595C1.83334 16.1855 1.83334 14.457 1.83334 11.0001C1.83334 7.54312 1.83334 5.81463 2.90729 4.74069C3.98123 3.66675 5.70971 3.66675 9.16668 3.66675L12.8333 3.66675C16.2903 3.66675 18.0188 3.66675 19.0927 4.74069C20.1667 5.81463 20.1667 7.54311 20.1667 11.0001C20.1667 14.457 20.1667 16.1855 19.0927 17.2595C18.0188 18.3334 16.2903 18.3334 12.8333 18.3334H9.16668Z" fill="#89AF4E" stroke="#89AF4E" stroke-width="1.5"/>
<path d="M8.24999 10.9999L8.25458 8.25439" stroke="#DBDBDB" stroke-width="1.5" stroke-linecap="round"/>
<path d="M11 3.66672L11 2.55426C11 2.12385 10.7246 1.74172 10.3163 1.60559L9.62498 1.37514" stroke="#89AF4E" stroke-width="1.5" stroke-linecap="round"/>
<path d="M0.916677 10.0833H1.83334" stroke="#89AF4E" stroke-width="1.5" stroke-linecap="round"/>
<path d="M20.1667 10.0833H21.0833" stroke="#89AF4E" stroke-width="1.5" stroke-linecap="round"/>
<path d="M13.75 10.9999L13.7546 8.25439" stroke="#DBDBDB" stroke-width="1.5" stroke-linecap="round"/>
</svg>
