<svg width="23" height="22" viewBox="0 0 23 22" fill="none" xmlns="http://www.w3.org/2000/svg">
<path fill-rule="evenodd" clip-rule="evenodd" d="M7.37498 1.14581C7.75468 1.14581 8.06248 1.45362 8.06248 1.83331V2.29165C8.06248 2.67134 7.75468 2.97915 7.37498 2.97915C6.99528 2.97915 6.68748 2.67134 6.68748 2.29165V1.83331C6.68748 1.45362 6.99528 1.14581 7.37498 1.14581ZM3.3241 2.82385C3.59258 2.55537 4.02788 2.55537 4.29637 2.82385L4.49442 3.02191C4.76291 3.29039 4.76291 3.72569 4.49442 3.99418C4.22594 4.26266 3.79064 4.26266 3.52215 3.99418L3.3241 3.79612C3.05561 3.52764 3.05561 3.09234 3.3241 2.82385ZM11.4257 2.82398C11.6942 3.09247 11.6942 3.52777 11.4257 3.79625L11.2277 3.99431C10.9592 4.26279 10.5239 4.26279 10.2554 3.99431C9.98692 3.72582 9.98692 3.29052 10.2554 3.02204L10.4535 2.82398C10.7219 2.5555 11.1572 2.5555 11.4257 2.82398ZM7.83331 4.81248C7.29681 4.81248 6.80134 4.97931 6.3933 5.26392C6.27788 5.34443 6.16944 5.43439 6.06913 5.53269C5.6014 5.99102 5.31248 6.62781 5.31248 7.33331C5.31248 8.09651 5.65163 8.78129 6.18877 9.24403C6.62475 7.52425 7.82775 6.10881 9.41369 5.36924C9.36816 5.33255 9.32135 5.29742 9.27333 5.26392C8.86529 4.97931 8.36981 4.81248 7.83331 4.81248ZM10.8803 4.90547C10.7807 4.78067 10.6737 4.66215 10.5599 4.55061C10.4053 4.39914 10.2381 4.26042 10.06 4.13617C9.42866 3.69582 8.66012 3.43748 7.83331 3.43748C7.0065 3.43748 6.23797 3.69582 5.60666 4.13617C5.42853 4.26042 5.26134 4.39914 5.10677 4.55061C4.38599 5.25691 3.93748 6.24335 3.93748 7.33331C3.93748 8.82796 4.77919 10.1247 6.01176 10.7778C6.01725 11.0975 6.04865 11.4113 6.10403 11.7171C3.63486 11.7994 1.64581 13.8054 1.64581 16.2843C1.64581 18.8158 3.72019 20.8541 6.26188 20.8541H15.4286C18.6935 20.8541 21.3541 18.2364 21.3541 14.9902C21.3541 12.5668 19.8704 10.4935 17.7621 9.59864C17.2497 6.8692 14.8314 4.81248 11.9365 4.81248C11.5761 4.81248 11.2231 4.84437 10.8803 4.90547ZM16.2278 9.17918C15.6039 7.43993 13.922 6.18748 11.9365 6.18748C9.41557 6.18748 7.38589 8.20491 7.38589 10.6764C7.38589 11.1001 7.4452 11.5092 7.55583 11.8966C8.01159 12.0281 8.43823 12.2273 8.82373 12.4823C9.14041 12.6918 9.22731 13.1183 9.01782 13.435C8.80834 13.7517 8.3818 13.8386 8.06512 13.6291C7.71604 13.3982 7.31922 13.2325 6.89217 13.1497C6.68883 13.1102 6.47816 13.0894 6.26188 13.0894C4.4642 13.0894 3.02081 14.5275 3.02081 16.2843C3.02081 18.0411 4.4642 19.4791 6.26188 19.4791H15.4286C17.9495 19.4791 19.9791 17.4617 19.9791 14.9902C19.9791 13.0315 18.7056 11.3583 16.9197 10.7476C16.4535 10.5881 15.9521 10.5012 15.4286 10.5012C14.8945 10.5012 14.3834 10.5917 13.9092 10.7573C13.5508 10.8825 13.1587 10.6934 13.0335 10.335C12.9083 9.9765 13.0974 9.58442 13.4558 9.45921C14.0739 9.24332 14.7382 9.12621 15.4286 9.12621C15.6994 9.12621 15.9662 9.14423 16.2278 9.17918ZM1.64581 6.87498C1.64581 6.49528 1.95362 6.18748 2.33331 6.18748H2.79165C3.17134 6.18748 3.47915 6.49528 3.47915 6.87498C3.47915 7.25468 3.17134 7.56248 2.79165 7.56248H2.33331C1.95362 7.56248 1.64581 7.25468 1.64581 6.87498ZM4.49442 9.75578C4.76291 10.0243 4.76291 10.4596 4.49443 10.7281L4.29637 10.9261C4.02788 11.1946 3.59258 11.1946 3.3241 10.9261C3.05561 10.6576 3.05561 10.2223 3.3241 9.95384L3.52215 9.75578C3.79064 9.4873 4.22594 9.4873 4.49442 9.75578Z" fill="#818181"/>
</svg>
