<svg width="22" height="22" viewBox="0 0 22 22" fill="none" xmlns="http://www.w3.org/2000/svg">
<path d="M2.52081 1.83331C2.52081 1.45362 2.21301 1.14581 1.83331 1.14581C1.45362 1.14581 1.14581 1.45362 1.14581 1.83331V11.0526C1.1458 13.1686 1.14579 14.8269 1.31975 16.1208C1.4978 17.4451 1.86936 18.4901 2.6896 19.3104C3.50985 20.1306 4.55487 20.5022 5.87921 20.6802C7.17307 20.8542 8.83136 20.8542 10.9474 20.8541H20.1666C20.5463 20.8541 20.8541 20.5463 20.8541 20.1666C20.8541 19.7869 20.5463 19.4791 20.1666 19.4791H11C8.81994 19.4791 7.25407 19.4777 6.06242 19.3175C4.89056 19.1599 4.18406 18.8603 3.66188 18.3381C3.13969 17.8159 2.84004 17.1094 2.68249 15.9375C2.52227 14.7459 2.52081 13.18 2.52081 11V1.83331Z" fill="#818181"/>
<path d="M6.11116 4.88892L9.16174 4.88892" stroke="#818181" stroke-width="1.5" stroke-linecap="round"/>
<path d="M6.11109 9.77777L18.3333 9.77777" stroke="#818181" stroke-width="1.5" stroke-linecap="round"/>
<path d="M6.11112 14.6667H13.4445" stroke="#818181" stroke-width="1.5" stroke-linecap="round"/>
</svg>
