<svg width="45" height="45" viewBox="0 0 45 45" fill="none" xmlns="http://www.w3.org/2000/svg">
<rect width="45" height="45" rx="6" fill="#F5F9EE"/>
<path d="M14.0208 13.8333C14.0208 13.4536 13.713 13.1458 13.3333 13.1458C12.9536 13.1458 12.6458 13.4536 12.6458 13.8333V23.0526C12.6458 25.1686 12.6458 26.8269 12.8198 28.1208C12.9978 29.4451 13.3694 30.4901 14.1896 31.3104C15.0099 32.1306 16.0549 32.5022 17.3792 32.6802C18.6731 32.8542 20.3314 32.8542 22.4474 32.8541H31.6667C32.0464 32.8541 32.3542 32.5463 32.3542 32.1666C32.3542 31.7869 32.0464 31.4791 31.6667 31.4791H22.5C20.32 31.4791 18.7541 31.4777 17.5624 31.3175C16.3906 31.1599 15.6841 30.8603 15.1619 30.3381C14.6397 29.8159 14.3401 29.1094 14.1825 27.9375C14.0223 26.7459 14.0208 25.18 14.0208 23V13.8333Z" fill="#89AF4E"/>
<path d="M17.6112 16.8889L20.6617 16.8889" stroke="#89AF4E" stroke-width="1.5" stroke-linecap="round"/>
<path d="M17.6111 21.7778H29.8333" stroke="#89AF4E" stroke-width="1.5" stroke-linecap="round"/>
<path d="M17.6111 26.6667H24.9444" stroke="#89AF4E" stroke-width="1.5" stroke-linecap="round"/>
</svg>
