<svg width="22" height="22" viewBox="0 0 22 22" fill="none" xmlns="http://www.w3.org/2000/svg">
<path d="M6.41667 11.0001C6.41667 12.0126 5.59586 12.8334 4.58333 12.8334C3.57081 12.8334 2.75 12.0126 2.75 11.0001C2.75 9.98756 3.57081 9.16675 4.58333 9.16675C5.59586 9.16675 6.41667 9.98756 6.41667 11.0001Z" fill="#89AF4E"/>
<path d="M12.8333 11.0001C12.8333 12.0126 12.0125 12.8334 11 12.8334C9.98748 12.8334 9.16667 12.0126 9.16667 11.0001C9.16667 9.98756 9.98748 9.16675 11 9.16675C12.0125 9.16675 12.8333 9.98756 12.8333 11.0001Z" fill="#89AF4E"/>
<path d="M19.25 11.0001C19.25 12.0126 18.4292 12.8334 17.4167 12.8334C16.4041 12.8334 15.5833 12.0126 15.5833 11.0001C15.5833 9.98756 16.4041 9.16675 17.4167 9.16675C18.4292 9.16675 19.25 9.98756 19.25 11.0001Z" fill="#89AF4E"/>
</svg>
