<svg width="22" height="22" viewBox="0 0 22 22" fill="none" xmlns="http://www.w3.org/2000/svg">
<path fill-rule="evenodd" clip-rule="evenodd" d="M12.3702 3.97116C11.5888 3.27654 10.4112 3.27654 9.62974 3.97116L4.12974 8.86005C3.68942 9.25145 3.43749 9.81246 3.43749 10.4016V19.4792H4.81249L4.81249 14.619C4.81247 13.7954 4.81244 13.1086 4.88575 12.5634C4.96312 11.9879 5.13332 11.4683 5.55083 11.0508C5.96834 10.6333 6.48791 10.4631 7.06339 10.3857C7.60861 10.3124 8.29539 10.3125 9.119 10.3125H12.881C13.7046 10.3125 14.3914 10.3124 14.9366 10.3857C15.5121 10.4631 16.0316 10.6333 16.4492 11.0508C16.8667 11.4683 17.0369 11.9879 17.1142 12.5634C17.1875 13.1086 17.1875 13.7954 17.1875 14.619V19.4792H18.5625V10.4016C18.5625 9.81246 18.3106 9.25145 17.8702 8.86005L12.3702 3.97116ZM19.9375 19.4792V10.4016C19.9375 9.4197 19.5176 8.48469 18.7837 7.83236L13.2837 2.94348C11.9813 1.78577 10.0187 1.78577 8.71624 2.94348L3.21624 7.83236C2.48238 8.48469 2.06249 9.4197 2.06249 10.4016V19.4792H1.83333C1.45363 19.4792 1.14583 19.787 1.14583 20.1667C1.14583 20.5463 1.45363 20.8542 1.83333 20.8542H20.1667C20.5464 20.8542 20.8542 20.5463 20.8542 20.1667C20.8542 19.787 20.5464 19.4792 20.1667 19.4792H19.9375ZM15.8125 19.4792V14.6667C15.8125 13.783 15.811 13.1894 15.7515 12.7466C15.6946 12.3236 15.5963 12.1425 15.4769 12.0231C15.3574 11.9036 15.1764 11.8053 14.7534 11.7485C14.3106 11.6889 13.717 11.6875 12.8333 11.6875H9.16666C8.28298 11.6875 7.68939 11.6889 7.2466 11.7485C6.8236 11.8053 6.64256 11.9036 6.5231 12.0231C6.40365 12.1425 6.30536 12.3236 6.24849 12.7466C6.18895 13.1894 6.18749 13.783 6.18749 14.6667V19.4792H15.8125ZM8.47916 8.24999C8.47916 7.87029 8.78697 7.56249 9.16666 7.56249H12.8333C13.213 7.56249 13.5208 7.87029 13.5208 8.24999C13.5208 8.62968 13.213 8.93749 12.8333 8.93749H9.16666C8.78697 8.93749 8.47916 8.62968 8.47916 8.24999ZM7.56249 14.2083C7.56249 13.8286 7.8703 13.5208 8.24999 13.5208H13.75C14.1297 13.5208 14.4375 13.8286 14.4375 14.2083C14.4375 14.588 14.1297 14.8958 13.75 14.8958H8.24999C7.8703 14.8958 7.56249 14.588 7.56249 14.2083ZM7.56249 16.9583C7.56249 16.5786 7.8703 16.2708 8.24999 16.2708H13.75C14.1297 16.2708 14.4375 16.5786 14.4375 16.9583C14.4375 17.338 14.1297 17.6458 13.75 17.6458H8.24999C7.8703 17.6458 7.56249 17.338 7.56249 16.9583Z" fill="#818181"/>
</svg>
