<svg width="45" height="45" viewBox="0 0 45 45" fill="none" xmlns="http://www.w3.org/2000/svg">
<rect width="45" height="45" rx="6" fill="#F5F9EE"/>
<path fill-rule="evenodd" clip-rule="evenodd" d="M23.8703 15.9712C23.0888 15.2765 21.9112 15.2765 21.1298 15.9712L15.6298 20.8601C15.1894 21.2514 14.9375 21.8125 14.9375 22.4016V31.4792H16.3125L16.3125 26.619C16.3125 25.7954 16.3125 25.1086 16.3858 24.5634C16.4631 23.9879 16.6333 23.4683 17.0508 23.0508C17.4684 22.6333 17.9879 22.4631 18.5634 22.3857C19.1086 22.3124 19.7954 22.3125 20.619 22.3125H24.381C25.2046 22.3125 25.8914 22.3124 26.4366 22.3857C27.0121 22.4631 27.5317 22.6333 27.9492 23.0508C28.3667 23.4683 28.5369 23.9879 28.6143 24.5634C28.6876 25.1086 28.6875 25.7954 28.6875 26.619V31.4792H30.0625V22.4016C30.0625 21.8125 29.8106 21.2514 29.3703 20.8601L23.8703 15.9712ZM31.4375 31.4792V22.4016C31.4375 21.4197 31.0176 20.4847 30.2838 19.8324L24.7838 14.9435C23.4813 13.7858 21.5187 13.7858 20.2163 14.9435L14.7163 19.8324C13.9824 20.4847 13.5625 21.4197 13.5625 22.4016V31.4792H13.3333C12.9536 31.4792 12.6458 31.787 12.6458 32.1667C12.6458 32.5463 12.9536 32.8542 13.3333 32.8542H31.6667C32.0464 32.8542 32.3542 32.5463 32.3542 32.1667C32.3542 31.787 32.0464 31.4792 31.6667 31.4792H31.4375ZM27.3125 31.4792V26.6667C27.3125 25.783 27.3111 25.1894 27.2515 24.7466C27.1946 24.3236 27.0964 24.1425 26.9769 24.0231C26.8574 23.9036 26.6764 23.8053 26.2534 23.7485C25.8106 23.6889 25.217 23.6875 24.3333 23.6875H20.6667C19.783 23.6875 19.1894 23.6889 18.7466 23.7485C18.3236 23.8053 18.1426 23.9036 18.0231 24.0231C17.9037 24.1425 17.8054 24.3236 17.7485 24.7466C17.689 25.1894 17.6875 25.783 17.6875 26.6667V31.4792H27.3125ZM19.9792 20.25C19.9792 19.8703 20.287 19.5625 20.6667 19.5625H24.3333C24.713 19.5625 25.0208 19.8703 25.0208 20.25C25.0208 20.6297 24.713 20.9375 24.3333 20.9375H20.6667C20.287 20.9375 19.9792 20.6297 19.9792 20.25ZM19.0625 26.2083C19.0625 25.8286 19.3703 25.5208 19.75 25.5208H25.25C25.6297 25.5208 25.9375 25.8286 25.9375 26.2083C25.9375 26.588 25.6297 26.8958 25.25 26.8958H19.75C19.3703 26.8958 19.0625 26.588 19.0625 26.2083ZM19.0625 28.9583C19.0625 28.5786 19.3703 28.2708 19.75 28.2708H25.25C25.6297 28.2708 25.9375 28.5786 25.9375 28.9583C25.9375 29.338 25.6297 29.6458 25.25 29.6458H19.75C19.3703 29.6458 19.0625 29.338 19.0625 28.9583Z" fill="#89AF4E"/>
</svg>
