<svg width="22" height="22" viewBox="0 0 22 22" fill="none" xmlns="http://www.w3.org/2000/svg">
<path fill-rule="evenodd" clip-rule="evenodd" d="M6.87498 1.14575C7.25468 1.14575 7.56248 1.45356 7.56248 1.83325V2.29159C7.56248 2.67128 7.25468 2.97909 6.87498 2.97909C6.49528 2.97909 6.18748 2.67128 6.18748 2.29159V1.83325C6.18748 1.45356 6.49528 1.14575 6.87498 1.14575ZM2.8241 2.82379C3.09258 2.5553 3.52788 2.5553 3.79637 2.82379L3.99442 3.02185C4.26291 3.29033 4.26291 3.72563 3.99442 3.99412C3.72594 4.2626 3.29064 4.2626 3.02215 3.99412L2.8241 3.79606C2.55561 3.52758 2.55561 3.09228 2.8241 2.82379ZM10.9257 2.82392C11.1942 3.09241 11.1942 3.52771 10.9257 3.79619L10.7277 3.99425C10.4592 4.26273 10.0239 4.26273 9.7554 3.99425C9.48692 3.72576 9.48692 3.29046 9.7554 3.02198L9.95346 2.82392C10.2219 2.55544 10.6572 2.55544 10.9257 2.82392ZM1.14581 6.87492C1.14581 6.49522 1.45362 6.18742 1.83331 6.18742H2.29165C2.67134 6.18742 2.97915 6.49522 2.97915 6.87492C2.97915 7.25461 2.67134 7.56242 2.29165 7.56242H1.83331C1.45362 7.56242 1.14581 7.25461 1.14581 6.87492ZM3.99442 9.75572C4.26291 10.0242 4.26291 10.4595 3.99442 10.728L3.79637 10.926C3.52788 11.1945 3.09258 11.1945 2.8241 10.926C2.55561 10.6576 2.55561 10.2223 2.8241 9.95378L3.02215 9.75572C3.29064 9.48723 3.72594 9.48723 3.99442 9.75572Z" fill="#89AF4E"/>
<path d="M14.9286 20.1666C17.8215 20.1666 20.1666 17.849 20.1666 14.9901C20.1666 12.7243 18.6935 10.7985 16.6421 10.097C16.3507 7.51082 14.1312 5.49992 11.4365 5.49992C8.54357 5.49992 6.19839 7.8175 6.19839 10.6764C6.19839 11.3087 6.31312 11.9146 6.52313 12.4747C6.27685 12.4269 6.02233 12.4019 5.76188 12.4019C3.59219 12.4019 1.83331 14.1401 1.83331 16.2842C1.83331 18.4284 3.59219 20.1666 5.76188 20.1666H14.9286Z" fill="#89AF4E"/>
<path d="M8.9932 4.58713C8.50893 4.29378 7.94084 4.12492 7.33331 4.12492C5.5614 4.12492 4.12498 5.56134 4.12498 7.33325C4.12498 8.15171 4.43145 8.89859 4.9359 9.46539C5.35664 7.23129 6.92015 5.40446 8.9932 4.58713Z" fill="#89AF4E"/>
</svg>
