<svg width="22" height="22" viewBox="0 0 22 22" fill="none" xmlns="http://www.w3.org/2000/svg">
<g clip-path="url(#clip0_60_1716)">
<mask id="mask0_60_1716" style="mask-type:luminance" maskUnits="userSpaceOnUse" x="0" y="0" width="22" height="22">
<path d="M0 6.29425e-05H21.9999V22H0V6.29425e-05Z" fill="white"/>
</mask>
<g mask="url(#mask0_60_1716)">
<path d="M21.3554 0.644595V1.45369C21.3554 2.70361 20.8587 3.90278 19.9747 4.78677H19.9743C19.5366 5.2245 19.017 5.57172 18.4451 5.80863C17.8732 6.04553 17.2603 6.16747 16.6412 6.16748H15.8325V5.35838C15.8325 4.10827 16.329 2.90935 17.2129 2.02531H17.2132C17.6509 1.58758 18.1705 1.24035 18.7424 1.00345C19.3143 0.766545 19.9272 0.644606 20.5462 0.644595H21.3554Z" stroke="#818181" stroke-width="1.1" stroke-miterlimit="10" stroke-linecap="round" stroke-linejoin="round"/>
<path d="M0.644531 21.3555L5.47708 16.5229" stroke="#818181" stroke-width="1.1" stroke-miterlimit="10" stroke-linecap="round" stroke-linejoin="round"/>
<path d="M15.8325 4.44164C15.8325 4.98881 15.7248 5.53062 15.5153 6.03612C15.3059 6.54162 14.9989 7.00091 14.6119 7.38774C14.1629 7.83715 13.7614 8.23865 13.7614 8.23865L12.9106 7.38774C12.5236 7.0009 12.2167 6.5416 12.0073 6.0361C11.7979 5.53059 11.6902 4.98879 11.6903 4.44164C11.6902 3.89449 11.7979 3.35268 12.0073 2.84718C12.2167 2.34168 12.5236 1.88238 12.9106 1.49554L13.7614 0.644631C13.7614 0.644631 14.1629 1.04609 14.6119 1.49554C14.9989 1.88237 15.3059 2.34165 15.5153 2.84716C15.7248 3.35266 15.8325 3.89447 15.8325 4.44164Z" stroke="#818181" stroke-width="1.1" stroke-miterlimit="10" stroke-linecap="round" stroke-linejoin="round"/>
<path d="M11.6904 8.58379C11.6904 9.13096 11.5826 9.67277 11.3732 10.1783C11.1638 10.6838 10.8568 11.1431 10.4698 11.5299C10.0207 11.9793 9.61927 12.3808 9.61927 12.3808L8.76841 11.5299C8.38147 11.143 8.07454 10.6838 7.86517 10.1782C7.6558 9.67274 7.54809 9.13094 7.54819 8.58379C7.54809 8.03664 7.6558 7.49484 7.86517 6.98933C8.07454 6.48383 8.38147 6.02453 8.76841 5.63769L9.61927 4.78678C9.61927 4.78678 10.0207 5.18828 10.4698 5.63769C10.8568 6.02452 11.1638 6.48381 11.3732 6.98931C11.5826 7.49481 11.6904 8.03662 11.6904 8.58379Z" stroke="#818181" stroke-width="1.1" stroke-miterlimit="10" stroke-linecap="round" stroke-linejoin="round"/>
<path d="M7.54818 12.7259C7.54822 13.2731 7.44044 13.8149 7.23101 14.3204C7.02158 14.8259 6.71461 15.2852 6.32761 15.672C5.87855 16.1215 5.47709 16.5229 5.47709 16.5229L4.62623 15.672C4.23929 15.2852 3.93237 14.8259 3.723 14.3204C3.51363 13.8149 3.40591 13.2731 3.40601 12.7259C3.40591 12.1788 3.51363 11.637 3.723 11.1315C3.93237 10.626 4.23929 10.1667 4.62623 9.77984L5.47709 8.92893C5.47709 8.92893 5.87855 9.33043 6.32761 9.77984C6.71461 10.1667 7.02158 10.6259 7.23101 11.1315C7.44044 11.637 7.54822 12.1788 7.54818 12.7259Z" stroke="#818181" stroke-width="1.1" stroke-miterlimit="10" stroke-linecap="round" stroke-linejoin="round"/>
<path d="M17.5581 10.3096C16.4531 10.3095 15.3934 9.87065 14.612 9.08945C14.3285 8.80577 14.045 8.52214 13.7614 8.23854C13.7614 8.23854 14.1629 7.83709 14.612 7.38768C15.3934 6.60645 16.4531 6.16754 17.5581 6.16746H17.5584C18.6634 6.16755 19.7231 6.60646 20.5046 7.38768L21.3554 8.23854L20.5046 9.08945C19.7231 9.87064 18.6634 10.3095 17.5584 10.3096H17.5581Z" stroke="#818181" stroke-width="1.1" stroke-miterlimit="10" stroke-linecap="round" stroke-linejoin="round"/>
<path d="M13.4159 14.4518C12.3109 14.4518 11.2512 14.0128 10.4698 13.2316C10.1863 12.948 9.90281 12.6643 9.61926 12.3808C9.61926 12.3808 10.0207 11.9793 10.4698 11.5299C11.2512 10.7487 12.3109 10.3098 13.4159 10.3097H13.4162C14.5212 10.3098 15.5809 10.7487 16.3624 11.5299L17.2132 12.3808L16.3624 13.2316C15.5809 14.0128 14.5212 14.4517 13.4162 14.4518H13.4159Z" stroke="#818181" stroke-width="1.1" stroke-miterlimit="10" stroke-linecap="round" stroke-linejoin="round"/>
<path d="M9.2737 18.594C8.16874 18.5939 7.10905 18.155 6.3276 17.3738C6.04414 17.0901 5.76063 16.8065 5.47708 16.5229C5.47708 16.5229 5.87849 16.1215 6.3276 15.672C7.10903 14.8908 8.16874 14.4519 9.2737 14.4518H9.27405C10.379 14.4519 11.4387 14.8908 12.2201 15.672L13.0711 16.5229L12.2201 17.3738C11.4387 18.155 10.379 18.5939 9.27405 18.594H9.2737Z" stroke="#818181" stroke-width="1.1" stroke-miterlimit="10" stroke-linecap="round" stroke-linejoin="round"/>
</g>
</g>
<defs>
<clipPath id="clip0_60_1716">
<rect width="22" height="22" fill="white"/>
</clipPath>
</defs>
</svg>
