<svg width="46" height="45" viewBox="0 0 46 45" fill="none" xmlns="http://www.w3.org/2000/svg">
<rect x="0.5" width="45" height="45" rx="6" fill="#F5F9EE"/>
<path fill-rule="evenodd" clip-rule="evenodd" d="M23.5 14.2036C18.2004 14.2036 13.9042 18.4998 13.9042 23.7994C13.9042 29.0991 18.2004 33.3953 23.5 33.3953C28.7996 33.3953 33.0958 29.0991 33.0958 23.7994C33.0958 21.2178 32.0763 18.8742 30.4179 17.1494C30.3203 17.0479 30.2205 16.9485 30.1185 16.8514C29.4181 16.184 28.6169 15.6214 27.74 15.1888C27.6709 15.1547 27.6013 15.1214 27.5312 15.0889C26.3055 14.5207 24.9398 14.2036 23.5 14.2036ZM15.2431 23.7994C15.2431 19.2393 18.9399 15.5426 23.5 15.5426C24.7544 15.5426 25.9434 15.8223 27.0081 16.3227C27.1044 16.3679 27.1996 16.415 27.2937 16.4638C27.8716 16.7632 28.4096 17.129 28.8977 17.551C29.0038 17.6428 29.1076 17.7372 29.2089 17.8341C30.7791 19.3372 31.7569 21.4542 31.7569 23.7994C31.7569 28.3596 28.0601 32.0563 23.5 32.0563C18.9399 32.0563 15.2431 28.3596 15.2431 23.7994Z" fill="#89AF4E"/>
<path d="M13.9042 13.5341C17.1772 14.278 23.6339 19.0684 23.2768 32.2794" stroke="#89AF4E" stroke-width="1.4" stroke-linecap="round"/>
<path d="M23.737 32.2795C23.5537 25.4961 25.1668 20.9327 27.2229 17.9973" stroke="#89AF4E" stroke-width="1.4" stroke-linecap="round"/>
<path d="M29.0788 13.9804L31.3103 13.5341V15.3194L30.4177 16.6583L29.0788 17.551H27.2935L27.7398 15.3194L29.0788 13.9804Z" fill="#FBFBFB"/>
<path d="M31.4607 13.67L31.4408 14.2606C31.41 15.1729 31.018 16.036 30.351 16.6595L30.3507 16.6595C30.0204 16.9682 29.6326 17.2089 29.2094 17.3678C28.7861 17.5266 28.3357 17.6005 27.8839 17.5853L27.2935 17.5654L27.3134 16.9748C27.3442 16.0624 27.7361 15.1995 28.403 14.5759L28.4032 14.5759C28.7335 14.2672 29.1213 14.0265 29.5446 13.8677C29.9678 13.7088 30.4182 13.6349 30.8701 13.6501L31.4607 13.67Z" stroke="#89AF4E" stroke-width="1.1" stroke-miterlimit="10" stroke-linecap="round" stroke-linejoin="round"/>
</svg>
