<svg width="22" height="22" viewBox="0 0 22 22" fill="none" xmlns="http://www.w3.org/2000/svg">
<path d="M2.23322 4.71746C1.83331 5.17267 1.83331 5.95315 1.83331 7.5141V16.1246C1.83331 17.2301 1.83331 17.7828 2.12169 18.199C2.41007 18.6151 2.91425 18.7899 3.92262 19.1395L5.10896 19.5508C5.75148 19.7735 6.24588 19.9449 6.66078 20.0553C6.93145 20.1273 7.18054 19.9148 7.18054 19.6348V5.7471C7.18054 5.51893 7.01215 5.32636 6.79098 5.27026C6.43419 5.17976 6.00531 5.03107 5.41749 4.82728C3.99368 4.33367 3.28177 4.08686 2.74009 4.3375C2.54777 4.42648 2.37521 4.55584 2.23322 4.71746Z" fill="#89AF4E"/>
<path d="M11.5687 3.19039L10.1607 4.16664C9.65133 4.51982 9.27804 4.77865 8.95925 4.96318C8.80818 5.05064 8.70831 5.20885 8.70831 5.38341V19.1764C8.70831 19.5161 9.06029 19.7282 9.34646 19.5452C9.65361 19.3487 10.0053 19.1048 10.4313 18.8095L11.8393 17.8332C12.3486 17.4801 12.7219 17.2212 13.0407 17.0367C13.1918 16.9492 13.2916 16.791 13.2916 16.6164V2.82343C13.2916 2.48372 12.9397 2.27162 12.6535 2.45468C12.3464 2.65116 11.9947 2.89502 11.5687 3.19039Z" fill="#89AF4E"/>
<path d="M18.0773 2.86037L16.891 2.44908C16.2484 2.22631 15.7541 2.05493 15.3392 1.94456C15.0685 1.87256 14.8194 2.08502 14.8194 2.3651V16.2527C14.8194 16.4809 14.9878 16.6735 15.209 16.7296C15.5658 16.8201 15.9947 16.9688 16.5825 17.1726C18.0063 17.6662 18.7182 17.913 19.2599 17.6624C19.4522 17.5734 19.6248 17.444 19.7667 17.2824C20.1666 16.8272 20.1666 16.0467 20.1666 14.4858V5.87524C20.1666 4.76975 20.1666 4.21701 19.8783 3.80088C19.5899 3.38474 19.0857 3.20995 18.0773 2.86037Z" fill="#89AF4E"/>
</svg>
