<svg width="23" height="22" viewBox="0 0 23 22" fill="none" xmlns="http://www.w3.org/2000/svg">
<path fill-rule="evenodd" clip-rule="evenodd" d="M16.8726 2.89948C16.9209 2.9156 16.9698 2.93193 17.0193 2.94844L18.1212 3.31574C18.5457 3.45722 18.9178 3.58122 19.213 3.71855C19.5322 3.86701 19.8246 4.05823 20.0482 4.36844C20.2718 4.67864 20.3607 5.01656 20.4006 5.36626C20.4376 5.68973 20.4375 6.08194 20.4375 6.52942V14.0576C20.4375 14.6979 20.4375 15.2378 20.3879 15.6647C20.3363 16.1081 20.2208 16.5466 19.8976 16.9002C19.7059 17.11 19.473 17.2779 19.2134 17.3934C18.7757 17.5881 18.3232 17.5591 17.8862 17.4678C17.4655 17.3799 16.9533 17.2092 16.3459 17.0067L16.3068 16.9937C15.2796 16.6513 14.9277 16.5446 14.586 16.5563C14.4498 16.5609 14.3145 16.579 14.1819 16.6104C13.8491 16.689 13.5376 16.8845 12.6367 17.4852L11.3695 18.3299C11.3261 18.3589 11.2832 18.3875 11.2409 18.4158C10.2678 19.0653 9.59108 19.517 8.79994 19.6229C8.00879 19.7289 7.23704 19.4711 6.12738 19.1006C6.07912 19.0844 6.03023 19.0681 5.98068 19.0516L4.87877 18.6843C4.45425 18.5428 4.08217 18.4188 3.78698 18.2815C3.46786 18.133 3.1754 17.9418 2.95182 17.6316C2.72824 17.3214 2.63931 16.9835 2.59938 16.6338C2.56245 16.3103 2.56248 15.9181 2.5625 15.4706L2.5625 7.94243C2.56248 7.30219 2.56246 6.76224 2.61209 6.33538C2.66366 5.89191 2.77924 5.45349 3.10238 5.09983C3.29406 4.89005 3.52703 4.72214 3.78666 4.60664C4.22435 4.41192 4.67682 4.4409 5.11384 4.53222C5.53449 4.62012 6.04673 4.79089 6.6541 4.99337L6.69317 5.00639C7.72036 5.34879 8.07234 5.45546 8.41405 5.44379C8.5502 5.43914 8.68555 5.42102 8.81813 5.38968C9.15087 5.31102 9.46238 5.1155 10.3633 4.5149L11.6305 3.67011C11.6739 3.64113 11.7168 3.61252 11.7591 3.58427C12.7322 2.93479 13.4089 2.48309 14.2001 2.37714C14.9912 2.27119 15.763 2.52891 16.8726 2.89948ZM14.9375 3.76334V15.1977C15.4286 15.2509 15.9456 15.4235 16.627 15.651C16.6647 15.6635 16.7029 15.6763 16.7416 15.6892C17.3986 15.9082 17.8345 16.0523 18.1674 16.1219C18.493 16.1899 18.6046 16.1593 18.6545 16.1371C18.741 16.0986 18.8187 16.0427 18.8825 15.9727C18.9193 15.9325 18.9837 15.8362 19.0221 15.5059C19.0614 15.168 19.0625 14.7089 19.0625 14.0164V6.56545C19.0625 6.0713 19.0615 5.75843 19.0345 5.52222C19.0095 5.30359 18.9687 5.22231 18.9327 5.17241C18.8968 5.12252 18.8326 5.05807 18.6331 4.96525C18.4175 4.86497 18.121 4.76505 17.6522 4.60879L16.5845 4.25288C15.772 3.98206 15.29 3.82795 14.9375 3.76334ZM13.5625 15.363V4.06395C13.2772 4.22878 12.9114 4.46872 12.3932 4.81418L11.126 5.65897C11.092 5.68162 11.0585 5.70398 11.0254 5.72605C10.3945 6.14706 9.92421 6.46089 9.4375 6.63705V17.9361C9.72278 17.7713 10.0886 17.5313 10.6068 17.1859L11.874 16.3411C11.908 16.3184 11.9415 16.2961 11.9746 16.274C12.6055 15.853 13.0758 15.5392 13.5625 15.363ZM8.0625 18.2367V6.80238C7.57145 6.74915 7.05436 6.57653 6.37302 6.34909C6.33531 6.3365 6.2971 6.32374 6.25836 6.31083C5.60144 6.09186 5.16555 5.94772 4.83259 5.87815C4.50702 5.81012 4.39537 5.84076 4.34555 5.86292C4.25901 5.90143 4.18136 5.9574 4.11746 6.02732C4.08068 6.06758 4.01631 6.1638 3.97789 6.49418C3.93861 6.83206 3.9375 7.29115 3.9375 7.98361V15.4346C3.9375 15.9287 3.93854 16.2416 3.96551 16.4778C3.99047 16.6965 4.03131 16.7777 4.06727 16.8276C4.10324 16.8775 4.16743 16.942 4.36695 17.0348C4.58251 17.1351 4.879 17.235 5.34778 17.3913L6.41549 17.7472C7.22797 18.018 7.71002 18.1721 8.0625 18.2367Z" fill="#818181"/>
</svg>
