<svg width="21" height="22" viewBox="0 0 21 22" fill="none" xmlns="http://www.w3.org/2000/svg">
<g clip-path="url(#clip0_60_1754)">
<path d="M20 4.80402C20 8.30171 17.1646 11.1368 13.667 11.137H11.1338V11.138H11.2002V13.5003C11.2002 14.539 11.1887 16.8203 9.54297 20.0374H16.4668L16.6074 20.0521C16.9265 20.1172 17.167 20.3992 17.167 20.7376C17.167 21.076 16.9265 21.358 16.6074 21.4232L16.4668 21.4378H3.5C3.1134 21.4378 2.7998 21.1242 2.7998 20.7376C2.7998 20.351 3.1134 20.0374 3.5 20.0374H7.95508C9.70707 16.9223 9.79462 14.7255 9.79883 13.6702H7.33301C3.83535 13.6701 1 10.8349 1 7.33722V4.80402H4.7998C6.93376 4.80402 8.82012 5.86056 9.96777 7.47784C10.4994 4.51755 13.0869 2.27081 16.2002 2.27081H20V4.80402ZM2.40039 7.33722C2.40039 10.0617 4.60855 12.2706 7.33301 12.2708H9.7334V11.137C9.73311 8.41267 7.52423 6.20441 4.7998 6.20441H2.40039V7.33722ZM16.2002 3.6712C13.4757 3.6712 11.2668 5.8794 11.2666 8.60382V9.73761H13.667C16.3914 9.73743 18.5996 7.52851 18.5996 4.80402V3.6712H16.2002Z" fill="#818181"/>
</g>
<defs>
<clipPath id="clip0_60_1754">
<rect width="21" height="21" fill="white" transform="translate(0 0.5)"/>
</clipPath>
</defs>
</svg>
