<svg width="22" height="22" viewBox="0 0 22 22" fill="none" xmlns="http://www.w3.org/2000/svg">
<path fill-rule="evenodd" clip-rule="evenodd" d="M11 2.20361C5.70037 2.20361 1.40417 6.49981 1.40417 11.7994C1.40417 17.0991 5.70037 21.3953 11 21.3953C16.2996 21.3953 20.5958 17.0991 20.5958 11.7994C20.5958 9.21776 19.5763 6.87422 17.9179 5.14944C17.8203 5.04792 17.7205 4.94855 17.6185 4.85139C16.9181 4.18397 16.1169 3.62138 15.24 3.18879C15.1709 3.15468 15.1012 3.12137 15.0312 3.08889C13.8055 2.52071 12.4398 2.20361 11 2.20361ZM2.74313 11.7994C2.74313 7.23929 6.43985 3.54256 11 3.54256C12.2544 3.54256 13.4434 3.82227 14.5081 4.32272C14.6043 4.36795 14.6995 4.41497 14.7937 4.46376C15.3716 4.76324 15.9096 5.12901 16.3977 5.55099C16.5038 5.64275 16.6076 5.73717 16.7089 5.83415C18.2791 7.33725 19.2569 9.45415 19.2569 11.7994C19.2569 16.3596 15.5601 20.0563 11 20.0563C6.43985 20.0563 2.74313 16.3596 2.74313 11.7994Z" fill="#818181"/>
<path d="M1.40417 1.53412C4.67717 2.27798 11.1339 7.06845 10.7768 20.2794" stroke="#818181" stroke-width="1.4" stroke-linecap="round"/>
<path d="M11.237 20.2795C11.0537 13.4961 12.6668 8.93273 14.7229 5.99731" stroke="#818181" stroke-width="1.4" stroke-linecap="round"/>
<path d="M16.5788 1.98044L18.8103 1.53412V3.31939L17.9177 4.65834L16.5788 5.55097H14.7935L15.2398 3.31939L16.5788 1.98044Z" fill="#FBFBFB"/>
<path d="M18.9607 1.66998L18.9408 2.26056C18.91 3.1729 18.518 4.03599 17.851 4.65949L17.8507 4.65948C17.5204 4.96822 17.1326 5.20889 16.7094 5.36775C16.2861 5.52661 15.8357 5.60054 15.3839 5.58532L14.7935 5.56543L14.8134 4.97485C14.8442 4.06237 15.2361 3.19945 15.903 2.57591L15.9032 2.57592C16.2335 2.26718 16.6213 2.02651 17.0446 1.86765C17.4678 1.7088 17.9182 1.63487 18.3701 1.65008L18.9607 1.66998Z" stroke="#818181" stroke-width="1.1" stroke-miterlimit="10" stroke-linecap="round" stroke-linejoin="round"/>
</svg>
