<svg width="45" height="45" viewBox="0 0 45 45" fill="none" xmlns="http://www.w3.org/2000/svg">
<rect width="45" height="45" rx="6" fill="#F5F9EE"/>
<g clip-path="url(#clip0_100_18382)">
<mask id="mask0_100_18382" style="mask-type:luminance" maskUnits="userSpaceOnUse" x="11" y="12" width="23" height="22">
<path d="M11.5 12.0001H33.4999V34H11.5V12.0001Z" fill="white"/>
</mask>
<g mask="url(#mask0_100_18382)">
<path d="M32.8554 12.6446V13.4537C32.8554 14.7036 32.3587 15.9028 31.4747 16.7868H31.4743C31.0366 17.2245 30.517 17.5717 29.9451 17.8086C29.3732 18.0455 28.7603 18.1675 28.1412 18.1675H27.3325V17.3584C27.3325 16.1083 27.829 14.9093 28.7129 14.0253H28.7132C29.1509 13.5876 29.6705 13.2404 30.2424 13.0034C30.8143 12.7665 31.4272 12.6446 32.0462 12.6446H32.8554Z" stroke="#89AF4E" stroke-width="1.1" stroke-miterlimit="10" stroke-linecap="round" stroke-linejoin="round"/>
<path d="M12.1445 33.3555L16.9771 28.5229" stroke="#89AF4E" stroke-width="1.1" stroke-miterlimit="10" stroke-linecap="round" stroke-linejoin="round"/>
<path d="M27.3325 16.4416C27.3325 16.9888 27.2248 17.5306 27.0153 18.0361C26.8059 18.5416 26.4989 19.0009 26.1119 19.3877C25.6629 19.8371 25.2614 20.2386 25.2614 20.2386L24.4106 19.3877C24.0236 19.0009 23.7167 18.5416 23.5073 18.0361C23.2979 17.5306 23.1902 16.9888 23.1903 16.4416C23.1902 15.8945 23.2979 15.3527 23.5073 14.8472C23.7167 14.3417 24.0236 13.8824 24.4106 13.4955L25.2614 12.6446C25.2614 12.6446 25.6629 13.0461 26.1119 13.4955C26.4989 13.8824 26.8059 14.3417 27.0153 14.8472C27.2248 15.3527 27.3325 15.8945 27.3325 16.4416Z" stroke="#89AF4E" stroke-width="1.1" stroke-miterlimit="10" stroke-linecap="round" stroke-linejoin="round"/>
<path d="M23.1903 20.5838C23.1904 21.131 23.0826 21.6728 22.8732 22.1783C22.6637 22.6838 22.3568 23.1431 21.9698 23.5299C21.5207 23.9793 21.1193 24.3808 21.1193 24.3808L20.2684 23.5299C19.8815 23.143 19.5745 22.6838 19.3652 22.1782C19.1558 21.6727 19.0481 21.1309 19.0482 20.5838C19.0481 20.0366 19.1558 19.4948 19.3652 18.9893C19.5745 18.4838 19.8815 18.0245 20.2684 17.6377L21.1193 16.7868C21.1193 16.7868 21.5207 17.1883 21.9698 17.6377C22.3568 18.0245 22.6637 18.4838 22.8732 18.9893C23.0826 19.4948 23.1904 20.0366 23.1903 20.5838Z" stroke="#89AF4E" stroke-width="1.1" stroke-miterlimit="10" stroke-linecap="round" stroke-linejoin="round"/>
<path d="M19.0482 24.7259C19.0482 25.2731 18.9404 25.8149 18.731 26.3204C18.5216 26.8259 18.2146 27.2852 17.8276 27.672C17.3785 28.1215 16.9771 28.5229 16.9771 28.5229L16.1262 27.672C15.7393 27.2852 15.4324 26.8259 15.223 26.3204C15.0136 25.8149 14.9059 25.2731 14.906 24.7259C14.9059 24.1788 15.0136 23.637 15.223 23.1315C15.4324 22.626 15.7393 22.1667 16.1262 21.7798L16.9771 20.9289C16.9771 20.9289 17.3785 21.3304 17.8276 21.7798C18.2146 22.1667 18.5216 22.6259 18.731 23.1315C18.9404 23.637 19.0482 24.1788 19.0482 24.7259Z" stroke="#89AF4E" stroke-width="1.1" stroke-miterlimit="10" stroke-linecap="round" stroke-linejoin="round"/>
<path d="M29.0581 22.3096C27.9531 22.3095 26.8934 21.8707 26.1119 21.0895C25.8285 20.8058 25.545 20.5221 25.2614 20.2385C25.2614 20.2385 25.6628 19.8371 26.1119 19.3877C26.8934 18.6064 27.9531 18.1675 29.0581 18.1675H29.0584C30.1634 18.1676 31.2231 18.6065 32.0045 19.3877L32.8554 20.2385L32.0045 21.0895C31.2231 21.8706 30.1634 22.3095 29.0584 22.3096H29.0581Z" stroke="#89AF4E" stroke-width="1.1" stroke-miterlimit="10" stroke-linecap="round" stroke-linejoin="round"/>
<path d="M24.9159 26.4518C23.8109 26.4518 22.7512 26.0128 21.9698 25.2316C21.6863 24.948 21.4028 24.6643 21.1193 24.3808C21.1193 24.3808 21.5207 23.9793 21.9698 23.5299C22.7512 22.7487 23.8109 22.3098 24.9159 22.3097H24.9162C26.0212 22.3098 27.0809 22.7487 27.8624 23.5299L28.7132 24.3808L27.8624 25.2316C27.0809 26.0128 26.0212 26.4517 24.9162 26.4518H24.9159Z" stroke="#89AF4E" stroke-width="1.1" stroke-miterlimit="10" stroke-linecap="round" stroke-linejoin="round"/>
<path d="M20.7737 30.594C19.6687 30.5939 18.609 30.155 17.8276 29.3738C17.5441 29.0901 17.2606 28.8065 16.9771 28.5229C16.9771 28.5229 17.3785 28.1215 17.8276 27.672C18.609 26.8908 19.6687 26.4519 20.7737 26.4518H20.774C21.879 26.4519 22.9387 26.8908 23.7201 27.672L24.5711 28.5229L23.7201 29.3738C22.9387 30.155 21.879 30.5939 20.774 30.594H20.7737Z" stroke="#89AF4E" stroke-width="1.1" stroke-miterlimit="10" stroke-linecap="round" stroke-linejoin="round"/>
</g>
</g>
<defs>
<clipPath id="clip0_100_18382">
<rect width="22" height="22" fill="white" transform="translate(11.5 12)"/>
</clipPath>
</defs>
</svg>
