<svg width="21" height="22" viewBox="0 0 21 22" fill="none" xmlns="http://www.w3.org/2000/svg">
<path d="M8.75 18C5.45017 18 3.80025 18 2.77513 16.9749C1.75 15.9497 1.75 14.2998 1.75 11C1.75 7.70017 1.75 6.05025 2.77513 5.02513C3.80025 4 5.45017 4 8.75 4L12.25 4C15.5498 4 17.1997 4 18.2249 5.02513C19.25 6.05025 19.25 7.70017 19.25 11C19.25 14.2998 19.25 15.9497 18.2249 16.9749C17.1997 18 15.5498 18 12.25 18H8.75Z" stroke="#818181" stroke-width="1.5"/>
<path d="M7.87502 11L7.87939 8.37927" stroke="#818181" stroke-width="1.5" stroke-linecap="round"/>
<path d="M10.5 3.99998L10.5 2.97085C10.5 2.54044 10.2246 2.15831 9.81628 2.02218L9.1875 1.81256" stroke="#818181" stroke-width="1.5" stroke-linecap="round"/>
<path d="M0.875 10.125H1.75" stroke="#818181" stroke-width="1.5" stroke-linecap="round"/>
<path d="M19.25 10.125H20.125" stroke="#818181" stroke-width="1.5" stroke-linecap="round"/>
<path d="M13.125 11L13.1294 8.37927" stroke="#818181" stroke-width="1.5" stroke-linecap="round"/>
</svg>
